<svg width="95" height="94" viewBox="0 0 95 94" fill="none" xmlns="http://www.w3.org/2000/svg">
<circle cx="47.5001" cy="46.631" r="46.631" fill="#2347A2" fill-opacity="0.12"/>
<path d="M47.8691 26.9995C42.6291 26.9995 38.3691 31.2595 38.3691 36.4995C38.3691 41.6395 42.3891 45.7995 47.6291 45.9795C47.7891 45.9595 47.9491 45.9595 48.0691 45.9795C48.1091 45.9795 48.1291 45.9795 48.1691 45.9795C48.1891 45.9795 48.1891 45.9795 48.2091 45.9795C53.3291 45.7995 57.3491 41.6395 57.3691 36.4995C57.3691 31.2595 53.1091 26.9995 47.8691 26.9995Z" fill="#5200FF"/>
<path d="M58.031 51.3203C52.451 47.6003 43.351 47.6003 37.731 51.3203C35.191 53.0003 33.791 55.3003 33.791 57.7603C33.791 60.2203 35.191 62.5003 37.711 64.1803C40.511 66.0603 44.191 67.0003 47.871 67.0003C51.551 67.0003 55.231 66.0603 58.031 64.1803C60.551 62.4803 61.951 60.2003 61.951 57.7203C61.931 55.2803 60.551 52.9803 58.031 51.3203ZM52.531 56.1203L47.491 61.1603C47.251 61.4003 46.931 61.5203 46.611 61.5203C46.291 61.5203 45.971 61.3803 45.731 61.1603L43.211 58.6403C42.731 58.1603 42.731 57.3603 43.211 56.8803C43.691 56.4003 44.491 56.4003 44.971 56.8803L46.611 58.5203L50.771 54.3603C51.251 53.8803 52.051 53.8803 52.531 54.3603C53.031 54.8403 53.031 55.6403 52.531 56.1203Z" fill="#5200FF"/>
</svg>
